# xmcd
#
# Track frame offsets: 
#        150
#        13313
#        23287
#        37186
#        48799
#        62411
#        75509
#        88223
#        102655
#        114612
#        127588
#        141751
#        156480
#        168899
#        181826
#        194385
#        206820
#        217954
#        229840
#        243460
#
# Disc length: 3410 seconds
#
# Revision: 1
# Processed by: cddbd v1.5.2PL0 Copyright (c) Steve Scherf et al.
# Submitted via: ExactAudioCopyFreeDBPlugin 1.0
#
DISCID=0c0d5014
DTITLE=Furry Lewis, Robert Lockwood - ABC Of The Blues - Vol. 26 Lewis
DTITLE=, Lockwood
DYEAR=2010
DGENRE=Blues
TTITLE0=Furry Lewis - Everybody's Blues
TTITLE1=Furry Lewis - Sweet Papa Moon
TTITLE2=Furry Lewis - Kassie Jones Pt. 1
TTITLE3=Furry Lewis - Billy Lyons And Stack-O-Lee
TTITLE4=Furry Lewis - Judge Harsh Blues
TTITLE5=Furry Lewis - John Henry
TTITLE6=Furry Lewis - Black Gypsy Blues
TTITLE7=Furry Lewis - I Will Turn Your Money Green
TTITLE8=Furry Lewis - Jelly Roll
TTITLE9=Furry Lewis - Good Looking Girl Blues
TTITLE10=Furry Lewis - Mistreatin' Mama
TTITLE11=Furry Lewis - Furry's Blues
TTITLE12=Furry Lewis - Mean Old Bed Bug Blues
TTITLE13=Furry Lewis - Big Chief Blues
TTITLE14=Furry Lewis - Why Don't You Come Home Blues
TTITLE15=Robert Lockwood - Dust My Broom
TTITLE16=Robert Lockwood - Pearly
TTITLE17=Robert Lockwood - Aw Aw Baby
TTITLE18=Robert Lockwood - Sweet Woman From Maine
TTITLE19=Robert Lockwood - You've Gotta Stop This Mess
EXTD=
EXTT0=
EXTT1=
EXTT2=
EXTT3=
EXTT4=
EXTT5=
EXTT6=
EXTT7=
EXTT8=
EXTT9=
EXTT10=
EXTT11=
EXTT12=
EXTT13=
EXTT14=
EXTT15=
EXTT16=
EXTT17=
EXTT18=
EXTT19=
PLAYORDER=
